# AST/ASF file generated using VICON BodyLanguage
# -----------------------------------------------
:version 1.10
:name VICON
:units
  mass 1.0
  length 0.45
  angle deg
:documentation
   .ast/.asf automatically generated from VICON data using
   VICON BodyBuilder and BodyLanguage model FoxedUp or BRILLIANT.MOD
:root
   order TX TY TZ RX RY RZ
   axis XYZ
   position 0 0 0  
   orientation 0 0 0 
:bonedata
  begin
     id 1 
     name lhipjoint
     direction 0.543289 -0.788407 0.288535 
     length 2.57127 
     axis 0 0 0  XYZ
  end
  begin
     id 2 
     name lfemur
     direction 0.34202 -0.939693 0  
     length 8.47298  
     axis 0 0 20  XYZ
    dof rx ry rz
    limits (-160.0 20.0)
           (-70.0 70.0)
           (-60.0 70.0)
  end
  begin
     id 3 
     name ltibia
     direction 0.34202 -0.939693 0   
     length 8.13367   
     axis 0 0 20   XYZ
    dof rx
    limits (-10.0 170.0)
  end
  begin
     id 4 
     name lfoot
     direction 0.114037 -0.313314 0.942778   
     length 2.67113   
     axis -90 7.62852e-016 20   XYZ
    dof rx rz
    limits (-45.0 90.0)
           (-70.0 20.0)
  end
  begin
     id 5 
     name ltoes
     direction 1.536e-011 -4.21847e-011 1   
     length 1.32217   
     axis -90 7.62852e-016 20   XYZ
    dof rx
    limits (-90.0 20.0)
  end
  begin
     id 6 
     name rhipjoint
     direction -0.571293 -0.770752 0.282074   
     length 2.63017  
     axis 0 0 0  XYZ 
  end
  begin
     id 7 
     name rfemur
     direction -0.34202 -0.939693 0   
     length 8.60885   
     axis 0 0 -20   XYZ
    dof rx ry rz
    limits (-160.0 20.0)
           (-70.0 70.0)
           (-70.0 60.0)
  end
  begin
     id 8 
     name rtibia
     direction -0.34202 -0.939693 0   
     length 8.07673   
     axis 0 0 -20   XYZ
    dof rx
    limits (-10.0 170.0)
 end
 begin
     id 9 
     name rfoot
     direction -0.121336 -0.333368 0.934956   
     length 2.81602  
     axis -90 -7.62852e-016 -20   XYZ
    dof rx rz
    limits (-45.0 90.0)
           (-20.0 70.0)
  end
  begin
     id 10 
     name rtoes
     direction -1.53491e-011 -4.21808e-011 1   
     length 1.38905   
     axis -90 -7.62852e-016 -20   XYZ
    dof rx
    limits (-90.0 20.0)
  end
  begin
     id 11 
     name lowerback
     direction 0.0136776 0.999869 -0.00861835   
     length 2.14087   
     axis 0 0 0   XYZ
    dof rx ry rz
    limits (-20.0 45.0)
           (-30.0 30.0)
           (-30.0 30.0)
  end
  begin
     id 12 
     name upperback
     direction -0.00789158 0.999804 0.0181308   
     length 2.14151   
     axis 0 0 0   XYZ
    dof rx ry rz
    limits (-20.0 45.0)
           (-30.0 30.0)
           (-30.0 30.0)
  end
  begin
     id 13 
     name thorax
     direction -0.0135231 0.999666 0.0220247   
     length 2.13644   
     axis 0 0 0   XYZ
    dof rx ry rz
    limits (-20.0 45.0)
           (-30.0 30.0)
           (-30.0 30.0)
  end
  begin
     id 14 
     name lowerneck
     direction -0.0392259 0.997317 0.0618018   
     length 1.65045   
     axis 0 0 0   XYZ
    dof rx ry rz
    limits (-20.0 45.0)
           (-30.0 30.0)
           (-30.0 30.0)
  end
  begin
     id 15 
     name upperneck
     direction 0.0765547 0.994276 -0.0745319   
     length 1.66045   
     axis 0 0 0   XYZ
    dof rx ry rz
    limits (-20.0 45.0)
           (-30.0 30.0)
           (-30.0 30.0)
  end
  begin
     id 16
     name head
     direction 0.0241564 0.999031 -0.036785  
     length 1.66594  
     axis 0 0 0   XYZ
    dof rx ry rz
    limits (-20.0 45.0)
           (-30.0 30.0)
           (-30.0 30.0)
  end
  begin
     id 17 
     name lclavicle
     direction 0.967398 0.249018 0.0461573  
     length 3.75176  
     axis 0 0 0   XYZ
    dof ry rz
    limits (-20.0 10.0)
           (0.0 20.0)
  end
  begin
     id 18 
     name lhumerus
     direction 1 -4.48963e-011 -3.05005e-027   
     length 5.93342   
     axis 180 -30 -90   XYZ
    dof rx ry rz
    limits (-60.0 90.0)
           (-90.0 90.0)
           (-90.0 90.0)
  end
  begin
     id 19
     name lradius
     direction 1 -4.48957e-011 1.07006e-026   
     length 3.94763   
     axis 180 -30 -90   XYZ
    dof rx
    limits (-10.0 170.0)
  end
  begin
     id 20
     name lwrist
     direction 1 -4.48978e-011 1.92422e-026   
     length 1.97382   
     axis -1.18182e-014 90 90   XYZ
    dof ry
    limits (-180.0 0.0)
 end
  begin
     id 21 
     name lhand
     direction 1 -4.48931e-011 3.84844e-026   
     length 0.560187   
     axis -2.45563e-014 90 90   XYZ
    dof rx rz
    limits (-90.0 90.0)
           (-45.0 45.0)
  end
  begin
     id 22 
     name lfingers
     direction 1 -4.48952e-011 7.69687e-026   
     length 0.451637   
     axis -4.91126e-014 90 90   XYZ
    dof rx
    limits (0.0 90.0)
  end
  begin
     id 23
     name lthumb
     direction 0.707107 -6.34901e-011 0.707107   
     length 0.648463   
     axis -90 45 2.85299e-015   XYZ
    dof rx rz
    limits (-45.0 45.0)
           (-45.0 45.0)
  end
  begin
     id 24 
     name rclavicle
     direction -0.965946 0.258716 0.00371831   
     length 3.63667  
     axis 0 0 0   XYZ 
    dof ry rz
    limits (-10.0 20.0)
           (-20.0 0.0)
  end
  begin
     id 25 
     name rhumerus
     direction -1 -4.48966e-011 -1.78361e-028  
     length 6.28647   
     axis 180 30 90   XYZ
    dof rx ry rz
    limits (-90.0 60.0)
           (-90.0 90.0)
           (-90.0 90.0)
  end
  begin
     id 26 
     name rradius
     direction -1 -4.48961e-011 1.05248e-026   
     length 3.81645   
     axis 180 30 90   XYZ
    dof rx
    limits (-10.0 170.0)
  end
  begin
     id 27 
     name rwrist
     direction -1 -4.48979e-011 1.92422e-026   
     length 1.90822   
     axis -1.18182e-014 -90 -90   XYZ
    dof ry
    limits (-180.0 0.0)
  end
  begin
     id 28
     name rhand
     direction -1 -4.48937e-011 3.84844e-026   
     length 0.646185   
     axis -2.45563e-014 -90 -90   XYZ
    dof rx rz
    limits (-90.0 90.0)
           (-45.0 45.0)
  end
  begin
     id 29
     name rfingers
     direction -1 -4.48953e-011 7.69687e-026   
     length 0.520971   
     axis -4.91126e-014 -90 -90   XYZ
    dof rx
    limits (0.0 90.0)
  end
  begin
     id 30
     name rthumb
     direction -0.707107 -6.3494e-011 0.707107   
     length 0.748013   
     axis -90 -45 -2.85299e-015   XYZ
    dof rx rz
    limits (-45.0 45.0)
           (-45.0 45.0)
  end
:hierarchy
  begin
    root lhipjoint rhipjoint lowerback
    lhipjoint lfemur
    lfemur ltibia
    ltibia lfoot
    lfoot ltoes
    rhipjoint rfemur
    rfemur rtibia
    rtibia rfoot
    rfoot rtoes
    lowerback upperback
    upperback thorax
    thorax lowerneck lclavicle rclavicle
    lowerneck upperneck
    upperneck head
    lclavicle lhumerus
    lhumerus lradius
    lradius lwrist
    lwrist lhand lthumb
    lhand lfingers
    rclavicle rhumerus
    rhumerus rradius
    rradius rwrist
    rwrist rhand rthumb
    rhand rfingers
  end

#!OML:ASF H:\HAZMAT1\Patient Classification 1\Patient 3\Session 1\dancer.ASF
:FULLY-SPECIFIED
:DEGREES
89
upperback 6.988770 -1.912510 8.239550
rfoot -27.326000 -5.661970
lradius 16.537800
lthumb 6.830360 -661.661987
rradius 55.689602
lwrist -24.093599
rhand -28.483101 -38.753601
rhumerus 40.951900 26.677999 -17.640100
lowerneck -9.990210 1.156990 -0.594069
lhand -19.491899 28.467800
ltibia 104.530998
head 2.641770 1.005180 3.151030
rwrist 0.117841
lfingers 7.125020
rtoes -9.004890
lowerback 8.528850 -2.365030 10.479400
rfingers 7.125020
lclavicle -0.000000 -0.000000
upperneck 2.837900 1.273020 8.969350
rfemur -149.658005 -22.861500 40.408699
thorax 2.511090 -0.517996 2.935710
rclavicle -0.000000 -0.000000
rtibia 119.359001
lfoot -18.493999 -20.122499
lhumerus 47.324699 14.384800 67.006500
rthumb -1.852470 291.274994
root -19.922100 10.331700 20.357800 -285.546997 -252.304001 373.058990
ltoes -18.203699
lfemur -55.491100 29.059500 0.581028
90
upperback 8.647040 -3.144060 9.022920
rfoot -36.167801 -10.523100
lradius 21.252001
lthumb -2.709230 -659.901001
rradius 51.468201
lwrist -13.648500
rhand -39.549400 -45.509800
rhumerus 31.663500 12.755300 -31.147600
lowerneck -10.609400 1.536660 -2.030630
lhand -29.370199 30.136200
ltibia 79.509003
head 3.237070 1.201000 2.073510
rwrist 4.727520
lfingers 7.125020
rtoes -16.917601
lowerback 9.723960 -3.409500 9.414130
rfingers 7.125020
lclavicle 0.000000 0.000000
upperneck 4.365950 2.045990 4.786030
rfemur -132.514999 -35.246601 29.588200
thorax 3.710090 -1.100920 4.515020
rclavicle 0.000000 0.000000
rtibia 107.029999
lfoot 6.226820 -14.754400
lhumerus 53.342899 6.878390 73.495796
rthumb -12.533300 284.885986
root -17.427601 12.128800 18.757799 -302.131989 -250.145004 345.239014
ltoes -13.851600
lfemur -58.546398 9.558970 -9.314150
91
upperback 9.023960 -2.535920 10.472800
rfoot -35.428299 -22.586100
lradius 21.882000
lthumb -8.939390 -649.469971
rradius 40.483501
lwrist -13.772900
rhand -44.125401 -53.549599
rhumerus 55.519798 0.152088 -42.220299
lowerneck -12.370500 0.688877 -0.473809
lhand -35.823399 40.739101
ltibia 50.739899
head 0.507473 0.724327 0.416081
rwrist -8.555850
lfingers 7.125020
rtoes 0.073622
lowerback 13.929400 -2.929420 1.806570
rfingers 7.125020
lclavicle -0.000000 -0.000000
upperneck -4.910460 1.199460 0.931013
rfemur -118.378998 -32.569901 13.119000
thorax 2.262190 -1.221460 10.615100
rclavicle -0.000000 -0.000000
rtibia 92.774902
lfoot -12.320600 14.290500
lhumerus 70.558098 -2.283630 74.338997
rthumb -16.941900 277.169006
root -15.804600 14.970500 16.902800 -314.136993 -246.393005 316.938995
ltoes -6.857910
lfemur -90.149399 18.389200 -23.572800
92
upperback 9.496950 -7.571840 9.859130
rfoot -32.646301 -3.911800
lradius 24.366501
lthumb -10.689000 -645.262024
rradius 29.782600
lwrist -12.676300
rhand -54.464699 -79.182297
rhumerus 49.557999 -11.456700 -57.508701
lowerneck -10.339500 -2.799810 -6.818220
lhand -37.636902 45.029598
ltibia 66.397797
head 1.039430 -1.314120 2.114400
rwrist -4.490270
lfingers 7.125020
rtoes -25.815901
lowerback 20.469601 -7.165790 -1.952240
rfingers 7.125020
lclavicle -0.000000 0.000000
upperneck -2.833340 -2.918720 3.295650
rfemur -113.464996 -0.688527 36.427700
thorax 0.834219 -3.671710 13.492300
rclavicle -0.000000 0.000000
rtibia 100.459999
lfoot -11.107200 0.643321
lhumerus 68.022400 -19.203600 73.817497
rthumb -26.868099 467.292999
root -15.641300 13.197300 15.740400 -346.384003 -228.695999 296.273987
ltoes -20.475700
lfemur -88.303802 14.644000 -39.302299
93
upperback 7.168700 -17.169300 5.648030
rfoot 3.759550 -27.572001
lradius 23.749001
lthumb -9.594520 -648.671997
rradius 50.556000
lwrist -10.379800
rhand -55.900200 -79.837799
rhumerus 8.325760 -21.039200 -58.547001
lowerneck -5.355940 -6.864420 -8.373830
lhand -36.502399 41.566200
ltibia 94.659599
head 3.770110 -4.374760 3.903410
rwrist -0.256129
lfingers 7.125020
rtoes 20.214001
lowerback 13.978200 -14.473600 0.742042
rfingers 7.125020
lclavicle 0.000000 -0.000000
upperneck 6.839470 -9.219700 9.995060
rfemur -91.811302 8.484210 10.621700
thorax 1.693540 -8.057440 7.465090
rclavicle 0.000000 -0.000000
rtibia 34.794201
lfoot -16.173401 -7.559480
lhumerus 51.545601 -39.441799 78.726898
rthumb -28.240801 467.730011
root -15.818300 9.818900 15.138100 -359.739990 -198.007004 300.822998
ltoes -18.827600
lfemur -82.413399 16.358700 -44.554001
94
upperback 6.855720 -17.511999 3.982960
rfoot 15.332000 -16.492100
lradius 24.196501
lthumb -6.303530 -650.057983
rradius 51.931499
lwrist -7.127690
rhand -56.057499 -73.039101
rhumerus -13.232600 -24.991301 -52.710300
lowerneck -3.884340 -8.702490 -8.425910
lhand -33.092499 40.055901
ltibia 113.259003
head 5.550150 -5.528510 4.649420
rwrist 0.250626
lfingers 7.125020
rtoes 3.167210
lowerback 11.042500 -14.358300 0.659963
rfingers 7.125020
lclavicle -0.000000 -0.000000
upperneck 11.904100 -12.216800 13.084300
rfemur -87.049797 2.487350 24.212999
thorax 2.367790 -8.251760 5.193470
rclavicle -0.000000 -0.000000
rtibia 31.400700
lfoot -26.869801 -13.777400
lhumerus 41.518398 -51.086800 85.081100
rthumb -28.391199 460.906006
root -16.292601 7.763520 14.340200 -364.382996 -190.785995 313.300995
ltoes -34.996899
lfemur -83.453400 19.307199 -27.693800
95
upperback 6.829770 -17.664000 5.169930
rfoot -17.355301 -12.168700
lradius 29.150600
lthumb -5.177360 -643.229980
rradius 41.458302
lwrist -17.356701
rhand -55.988602 -72.456497
rhumerus 13.861800 -21.211201 -58.766899
lowerneck -4.522330 -7.326290 -7.511460
lhand -31.926100 46.852901
ltibia 104.524002
head 4.486900 -4.681070 4.637850
rwrist 15.191800
lfingers 7.125020
rtoes -15.305100
lowerback 17.168100 -15.084500 1.509490
rfingers 7.125020
lclavicle -0.000000 0.000000
upperneck 8.945650 -10.291200 13.031400
rfemur -90.920303 3.870550 31.702499
thorax -0.609147 -8.195240 7.552020
rclavicle -0.000000 0.000000
rtibia 82.799599
lfoot -28.888800 -9.409370
lhumerus 36.773800 -33.520000 91.505501
rthumb -28.325399 460.334015
root -16.489401 9.392670 14.074300 -376.035004 -203.656006 303.790985
ltoes -38.647701
lfemur -63.727699 13.151500 -26.653000
